<svg width="92" height="72" viewBox="0 0 92 72" fill="none" xmlns="http://www.w3.org/2000/svg">
<g opacity="0.3">
<path d="M73.8028 24.9819C76.6124 24.6747 78.6409 22.1481 78.3337 19.3386C78.0265 16.5291 75.4999 14.5005 72.6904 14.8077C69.8808 15.1149 67.8523 17.6415 68.1595 20.4511C68.4667 23.2606 70.9933 25.2891 73.8028 24.9819Z" stroke="#EB996E" stroke-width="0.561983" stroke-linecap="round" stroke-linejoin="round"/>
<path d="M77.0881 21.9713C78.2328 19.8516 77.4424 17.2052 75.3227 16.0605C73.2029 14.9158 70.5566 15.7063 69.4119 17.826C68.2672 19.9457 69.0576 22.5921 71.1773 23.7368C73.2971 24.8815 75.9434 24.091 77.0881 21.9713Z" stroke="#EB996E" stroke-width="0.561983" stroke-linecap="round" stroke-linejoin="round"/>
<path d="M75.1045 20.7706C75.1045 19.3038 73.024 19.2707 73.024 18.6584C73.024 18.3364 73.1932 18.2387 73.54 18.2387C73.8386 18.2387 74.0904 18.3681 74.378 18.6268L75.066 17.8356C74.7484 17.4798 74.3196 17.2421 73.8496 17.1613V16.3357H72.9428V17.1847C72.1653 17.3526 71.7044 17.9071 71.7044 18.7231C71.7044 20.1335 73.7863 20.223 73.7863 20.8683C73.7863 21.182 73.6239 21.3196 73.2207 21.3196C72.8822 21.3196 72.5437 21.1903 72.1075 20.8683L71.5117 21.804C71.9208 22.142 72.4196 22.3533 72.9469 22.4122V23.2227H73.851V22.3558C74.689 22.1563 75.1045 21.5481 75.1045 20.7706Z" stroke="#EB996E" stroke-width="0.561983" stroke-linecap="round" stroke-linejoin="round"/>
</g>
<g opacity="0.3">
<path d="M76.2961 49.4166C77.585 49.4166 78.6299 48.3718 78.6299 47.0829C78.6299 45.794 77.585 44.7492 76.2961 44.7492C75.0072 44.7492 73.9624 45.794 73.9624 47.0829C73.9624 48.3718 75.0072 49.4166 76.2961 49.4166Z" stroke="#EB996E" stroke-width="0.561983" stroke-linecap="round" stroke-linejoin="round"/>
<path d="M77.7024 48.4901C78.4795 47.7131 78.4795 46.4532 77.7024 45.6762C76.9254 44.8992 75.6656 44.8992 74.8885 45.6762C74.1115 46.4533 74.1115 47.7131 74.8885 48.4901C75.6656 49.2671 76.9254 49.2672 77.7024 48.4901Z" stroke="#EB996E" stroke-width="0.561983" stroke-linecap="round" stroke-linejoin="round"/>
<path d="M77.1424 47.482C77.1424 46.8132 76.1929 46.794 76.1929 46.5188C76.1929 46.3715 76.27 46.3275 76.4282 46.3275C76.574 46.3348 76.7114 46.3979 76.8121 46.5036L77.1245 46.1431C76.9802 45.9823 76.7866 45.8738 76.5741 45.8349V45.4592H76.1613V45.8459C75.994 45.8701 75.8419 45.9562 75.7352 46.0872C75.6284 46.2182 75.5747 46.3845 75.5847 46.5532C75.5847 47.1971 76.5342 47.2412 76.5342 47.5315C76.5342 47.676 76.4599 47.7379 76.2769 47.7379C76.0893 47.7277 75.9106 47.655 75.7691 47.5315L75.4939 47.9595C75.6807 48.1132 75.9084 48.2089 76.1489 48.2347V48.6048H76.5617V48.2044C76.73 48.1757 76.882 48.0864 76.989 47.9533C77.0959 47.8202 77.1505 47.6525 77.1424 47.482Z" stroke="#EB996E" stroke-width="0.561983" stroke-linecap="round" stroke-linejoin="round"/>
</g>
<g opacity="0.3">
<path d="M34.3713 9.99991C36.3689 9.6803 37.7292 7.80184 37.4096 5.80424C37.09 3.80664 35.2116 2.44636 33.214 2.76597C31.2164 3.08557 29.8561 4.96404 30.1757 6.96164C30.4953 8.95923 32.3738 10.3195 34.3713 9.99991Z" stroke="#EB996E" stroke-width="0.561983" stroke-linecap="round" stroke-linejoin="round"/>
<path d="M36.4292 8.05834C37.3529 6.60226 36.9213 4.67308 35.4653 3.74939C34.0092 2.8257 32.08 3.25727 31.1563 4.71334C30.2326 6.16941 30.6642 8.09859 32.1203 9.02229C33.5763 9.94598 35.5055 9.51441 36.4292 8.05834Z" stroke="#EB996E" stroke-width="0.561983" stroke-linecap="round" stroke-linejoin="round"/>
<path d="M35.12 7.01176C35.12 5.96186 33.6311 5.93847 33.6311 5.49814C33.6311 5.26834 33.7522 5.19817 34.0013 5.19817C34.2294 5.20851 34.4446 5.30721 34.6012 5.47337L35.0911 4.90783C34.8637 4.65267 34.5568 4.48196 34.2201 4.42347V3.83728H33.5733V4.44686C33.3154 4.48827 33.0819 4.62362 32.9178 4.82685C32.7537 5.03008 32.6706 5.28683 32.6844 5.54768C32.6844 6.55768 34.1733 6.62097 34.1733 7.08332C34.1733 7.30761 34.0591 7.40668 33.7701 7.40668C33.5279 7.40668 33.2844 7.31449 32.9734 7.08332L32.5468 7.74931C32.8388 7.99226 33.1958 8.14395 33.5733 8.18551V8.76757H34.2201V8.14698C34.482 8.09867 34.7176 7.95701 34.8831 7.74826C35.0485 7.53951 35.1327 7.27784 35.12 7.01176Z" stroke="#EB996E" stroke-width="0.561983" stroke-linecap="round" stroke-linejoin="round"/>
</g>
<g opacity="0.3">
<path d="M5.15104 50.0309C6.42328 49.8244 7.28721 48.6257 7.0807 47.3534C6.87419 46.0812 5.67543 45.2173 4.40319 45.4238C3.13096 45.6303 2.26702 46.8291 2.47353 48.1013C2.68005 49.3735 3.87881 50.2375 5.15104 50.0309Z" stroke="#EB996E" stroke-width="0.561983" stroke-linecap="round" stroke-linejoin="round"/>
<path d="M6.76425 47.7283C6.76425 47.3348 6.64755 46.9501 6.42892 46.6228C6.21028 46.2956 5.89953 46.0406 5.53596 45.89C5.17238 45.7394 4.77231 45.7 4.38634 45.7768C4.00037 45.8536 3.64584 46.0431 3.36757 46.3213C3.0893 46.5996 2.8998 46.9541 2.82302 47.3401C2.74625 47.7261 2.78565 48.1261 2.93625 48.4897C3.08685 48.8533 3.34188 49.164 3.66909 49.3827C3.9963 49.6013 4.38099 49.718 4.77452 49.718C5.30223 49.718 5.80832 49.5084 6.18147 49.1352C6.55462 48.7621 6.76425 48.256 6.76425 47.7283V47.7283Z" stroke="#EB996E" stroke-width="0.561983" stroke-linecap="round" stroke-linejoin="round"/>
<path d="M5.62078 48.1287C5.62078 47.4586 4.6727 47.4407 4.6727 47.1655C4.6727 47.0182 4.74975 46.9742 4.908 46.9742C5.05346 46.9813 5.19053 47.0444 5.29053 47.1503L5.60289 46.7898C5.45901 46.6287 5.26516 46.5206 5.05248 46.483V46.1059H4.63967V46.494C4.47504 46.52 4.32592 46.6061 4.22118 46.7358C4.11645 46.8654 4.06356 47.0293 4.07275 47.1957C4.07275 47.8383 5.02221 47.8837 5.02221 48.1741C5.02221 48.3117 4.94928 48.3791 4.76489 48.3791C4.57753 48.3692 4.39882 48.2971 4.25714 48.1741L3.98193 48.6007C4.16911 48.7537 4.3966 48.8493 4.63692 48.8759V49.2446H5.04973V48.8511C5.21655 48.8208 5.3666 48.7308 5.47173 48.5978C5.57687 48.4648 5.62986 48.298 5.62078 48.1287V48.1287Z" stroke="#EB996E" stroke-width="0.561983" stroke-linecap="round" stroke-linejoin="round"/>
</g>
<g opacity="0.3">
<path d="M63.2869 60.4876C64.5614 60.2959 65.4393 59.1074 65.2477 57.8328C65.0561 56.5582 63.8675 55.6803 62.593 55.872C61.3184 56.0636 60.4405 57.2522 60.6321 58.5267C60.8237 59.8013 62.0123 60.6792 63.2869 60.4876Z" stroke="#EB996E" stroke-width="0.561983" stroke-linecap="round" stroke-linejoin="round"/>
<path d="M64.9273 58.1833C64.9268 57.7899 64.8096 57.4055 64.5907 57.0786C64.3717 56.7518 64.0608 56.4972 63.6971 56.347C63.3335 56.1968 62.9335 56.1578 62.5477 56.2349C62.162 56.312 61.8077 56.5017 61.5297 56.7801C61.2517 57.0584 61.0625 57.413 60.9859 57.7989C60.9094 58.1848 60.9489 58.5847 61.0996 58.9481C61.2503 59.3115 61.5053 59.6221 61.8325 59.8406C62.1596 60.0592 62.5442 60.1758 62.9376 60.1758C63.1992 60.176 63.4582 60.1245 63.6999 60.0244C63.9416 59.9243 64.1611 59.7775 64.3459 59.5924C64.5308 59.4073 64.6773 59.1876 64.777 58.9458C64.8768 58.704 64.9279 58.4449 64.9273 58.1833V58.1833Z" stroke="#EB996E" stroke-width="0.561983" stroke-linecap="round" stroke-linejoin="round"/>
<path d="M63.7839 58.5824C63.7839 57.9136 62.8358 57.8943 62.8358 57.6191C62.8358 57.4719 62.9128 57.4279 63.0711 57.4279C63.2165 57.435 63.3536 57.4981 63.4536 57.604L63.766 57.2435C63.6223 57.0819 63.4284 56.9733 63.2156 56.9353V56.5596H62.8028V56.9476C62.6384 56.9736 62.4895 57.0596 62.3847 57.1889C62.28 57.3183 62.227 57.4819 62.2358 57.648C62.2358 58.292 63.1853 58.336 63.1853 58.6278C63.1853 58.7654 63.1124 58.8328 62.928 58.8328C62.7406 58.8229 62.5619 58.7508 62.4202 58.6278L62.145 59.0543C62.3322 59.2074 62.5597 59.303 62.8 59.3295V59.6983H63.2128V59.3034C63.3793 59.2729 63.5289 59.183 63.634 59.0503C63.739 58.9177 63.7923 58.7514 63.7839 58.5824Z" stroke="#EB996E" stroke-width="0.561983" stroke-linecap="round" stroke-linejoin="round"/>
</g>
<g opacity="0.3">
<path d="M16.7818 23.5791C18.0707 23.5791 19.1155 22.5342 19.1155 21.2453C19.1155 19.9564 18.0707 18.9116 16.7818 18.9116C15.4929 18.9116 14.4481 19.9564 14.4481 21.2453C14.4481 22.5342 15.4929 23.5791 16.7818 23.5791Z" stroke="#EB996E" stroke-width="0.561983" stroke-linecap="round" stroke-linejoin="round"/>
<path d="M18.6527 21.9207C19.0268 20.8874 18.4924 19.7465 17.4591 19.3725C16.4258 18.9985 15.2849 19.5329 14.9109 20.5662C14.5369 21.5994 15.0713 22.7403 16.1046 23.1143C17.1378 23.4884 18.2787 22.954 18.6527 21.9207Z" stroke="#EB996E" stroke-width="0.561983" stroke-linecap="round" stroke-linejoin="round"/>
<path d="M17.6294 21.6471C17.6294 20.977 16.68 20.9591 16.68 20.6839C16.68 20.5367 16.757 20.4926 16.9153 20.4926C17.061 20.4997 17.1983 20.5634 17.2978 20.6701L17.6102 20.3096C17.4665 20.148 17.2726 20.0394 17.0597 20.0014V19.6244H16.6469V20.0124C16.4824 20.0387 16.3335 20.1249 16.2288 20.2545C16.1241 20.3841 16.0711 20.5478 16.08 20.7142C16.08 21.3581 17.0295 21.4022 17.0295 21.6925C17.0295 21.8301 16.9565 21.8989 16.7722 21.8989C16.5847 21.8883 16.4061 21.8157 16.2644 21.6925L15.9892 22.1191C16.1764 22.2721 16.4039 22.3677 16.6442 22.3943V22.7644H17.057V22.3681C17.2237 22.338 17.3737 22.2481 17.479 22.1155C17.5844 21.9828 17.6378 21.8163 17.6294 21.6471V21.6471Z" stroke="#EB996E" stroke-width="0.561983" stroke-linecap="round" stroke-linejoin="round"/>
</g>
<g opacity="0.3">
<path d="M15.3358 54.61C18.1452 54.3018 20.1729 51.7745 19.8647 48.9651C19.5565 46.1556 17.0292 44.128 14.2198 44.4362C11.4104 44.7443 9.3827 47.2717 9.69088 50.0811C9.99906 52.8905 12.5264 54.9182 15.3358 54.61Z" stroke="#EB996E" stroke-width="0.561983" stroke-linecap="round" stroke-linejoin="round"/>
<path d="M18.6923 51.4494C19.7582 49.2889 18.8709 46.6735 16.7104 45.6076C14.55 44.5417 11.9345 45.429 10.8687 47.5895C9.80279 49.7499 10.6901 52.3653 12.8505 53.4312C15.011 54.4971 17.6264 53.6098 18.6923 51.4494Z" stroke="#EB996E" stroke-width="0.561983" stroke-linecap="round" stroke-linejoin="round"/>
<path d="M16.6373 50.3978C16.6373 48.9296 14.5567 48.8979 14.5567 48.2842C14.5567 47.9622 14.726 47.8645 15.0727 47.8645C15.3713 47.8645 15.6231 47.9939 15.9121 48.2526L16.6001 47.4614C16.2815 47.1061 15.8525 46.8685 15.3823 46.7871V45.9615H14.4755V46.8119C13.6995 46.9797 13.2371 47.5343 13.2371 48.3489C13.2371 49.7607 15.3177 49.8488 15.3177 50.4941C15.3177 50.8092 15.1567 50.9454 14.7535 50.9454C14.415 50.9454 14.0751 50.8161 13.6403 50.4941L13.0431 51.4298C13.4523 51.7676 13.951 51.9789 14.4783 52.038V52.8485H15.3823V51.9816C16.2217 51.7821 16.6373 51.1739 16.6373 50.3978Z" stroke="#EB996E" stroke-width="0.561983" stroke-linecap="round" stroke-linejoin="round"/>
</g>
<path d="M11.8473 24.9069C11.8804 25.5633 11.3272 26.9283 11.3272 26.9297C11.3272 26.9311 10.5374 26.2926 10.4933 26.2417C9.97595 25.6995 9.29344 24.3496 9.69249 23.6121C9.76221 23.4914 9.85657 23.3867 9.96941 23.3048C10.0823 23.2229 10.2111 23.1657 10.3475 23.1369C10.4839 23.1081 10.6248 23.1083 10.7611 23.1376C10.8975 23.1668 11.0261 23.2244 11.1387 23.3066C11.6272 23.6437 11.8184 24.3483 11.8473 24.9069Z" fill="#BC9434"/>
<path d="M25.2387 37.9461L25.3241 37.9971L25.3351 38.5901L24.98 38.3713C24.6374 38.1581 24.2755 37.9241 23.9054 37.6833C23.6193 37.995 23.3151 38.2895 22.9944 38.5654C23.2779 39.1323 23.3976 40.3542 23.4072 40.511C23.8049 40.5014 24.1916 40.4877 24.5562 40.4698C24.8067 40.4574 25.0475 40.4436 25.28 40.4285L25.0846 40.9459C24.9181 40.9459 24.7502 40.9583 24.5755 40.9624C24.1723 40.9734 23.7416 40.9789 23.2985 40.9789C23.2738 41.1371 23.0619 42.4375 22.722 42.9535C22.4138 43.42 21.8964 43.9291 21.2992 43.9662C21.1614 43.9793 21.0223 43.9634 20.8911 43.9195C20.7598 43.8756 20.6391 43.8047 20.5369 43.7114C20.4346 43.6181 20.353 43.5044 20.2973 43.3777C20.2416 43.2509 20.2131 43.1139 20.2135 42.9755C20.2452 42.1361 21.5193 41.3243 22.2404 41.1179C22.283 41.1069 22.7591 41.0284 23.0591 40.9803C22.8789 40.9803 22.7027 40.9803 22.517 40.9803C22.1482 40.9803 21.7808 40.961 21.3845 40.9472L20.8066 40.906C20.6139 40.8963 20.4103 40.8619 20.2108 40.8399C19.747 40.7808 19.2819 40.7023 18.8141 40.6046C18.8141 40.9266 18.7783 42.0715 18.5389 42.582C18.2995 43.0925 17.866 43.6731 17.2867 43.7997C17.1514 43.8339 17.0104 43.8393 16.8729 43.8153C16.7354 43.7914 16.6045 43.7388 16.4887 43.6609C16.3729 43.583 16.2748 43.4816 16.2008 43.3633C16.1268 43.2449 16.0786 43.1123 16.0593 42.9741C15.963 42.1403 17.0996 41.1413 17.7821 40.8317C17.8233 40.8124 18.3325 40.6459 18.6228 40.5565C18.3476 40.4973 18.0614 40.4409 17.7793 40.3721C16.9647 40.1739 16.1474 39.9483 15.33 39.7267L14.5828 39.5354C14.5828 39.651 14.5759 41.0133 14.3076 41.5843C14.0737 42.0921 13.6334 42.6755 13.0554 42.8021C12.9201 42.8366 12.7791 42.842 12.6415 42.8182C12.5039 42.7944 12.3729 42.7418 12.2571 42.6639C12.1412 42.5859 12.0431 42.4844 11.9692 42.366C11.8952 42.2475 11.8471 42.1148 11.828 41.9765C11.7317 41.1426 12.8683 40.1437 13.5494 39.834C13.6017 39.8107 14.342 39.5712 14.5333 39.5203C13.9829 39.3745 13.4325 39.2355 12.8821 39.1213C12.1419 38.9625 11.3922 38.8517 10.6378 38.7896C10.6378 38.8433 10.6378 40.2647 10.3626 40.8537C10.1273 41.3614 9.68831 41.9435 9.11038 42.0701C8.97497 42.1047 8.83377 42.1104 8.69603 42.0867C8.55829 42.0629 8.42711 42.0104 8.3111 41.9324C8.19509 41.8545 8.09685 41.7529 8.02283 41.6343C7.94881 41.5158 7.90068 41.3829 7.88159 41.2445C7.78664 40.412 8.92186 39.4116 9.60437 39.102C9.65803 39.0786 10.4548 38.8268 10.602 38.7841C10.558 38.7841 10.5139 38.7731 10.4644 38.7704C9.70628 38.7293 8.94603 38.7555 8.19257 38.8488C7.77976 38.8956 7.38072 38.963 6.99681 39.0373C7.02433 39.3029 7.13441 40.5138 6.95002 41.0683C6.77251 41.5995 6.39961 42.2256 5.83819 42.4155C5.70897 42.4618 5.57153 42.4808 5.43458 42.4713C5.29763 42.4618 5.16415 42.4239 5.04257 42.3602C4.921 42.2964 4.81398 42.2081 4.72829 42.1009C4.64259 41.9936 4.58009 41.8697 4.54473 41.7371C4.35759 40.9115 5.37035 39.801 6.0212 39.4185C6.05561 39.3978 6.43401 39.2258 6.70922 39.1034C6.53584 39.1405 6.35833 39.1749 6.19321 39.2121C5.57537 39.3497 5.01671 39.5203 4.52409 39.6731C4.24889 39.7625 3.99432 39.8478 3.7604 39.9304C3.65169 40.2056 3.19761 41.3064 2.78618 41.7013C2.37474 42.0962 1.76379 42.4746 1.17898 42.3893C0.594172 42.304 0.177237 41.7646 0.329975 41.1798C0.540507 40.3679 1.96056 39.8451 2.70912 39.8038C2.77379 39.8038 3.79067 39.8588 3.78517 39.8726V39.8891C4.00946 39.8052 4.24889 39.7171 4.51446 39.6276C5.00432 39.4639 5.56024 39.2836 6.17807 39.1281C6.84178 38.951 7.51537 38.8131 8.19532 38.7153C8.95597 38.6043 9.72497 38.561 10.4933 38.586H10.5208C10.2883 38.5034 9.64978 38.2502 9.60299 38.2255C8.9425 37.8718 7.87333 36.8027 8.02194 35.9771C8.05047 35.8406 8.10741 35.7118 8.18907 35.5988C8.27072 35.4859 8.37526 35.3914 8.49586 35.3216C8.61646 35.2517 8.75043 35.2081 8.88903 35.1935C9.02763 35.1788 9.16775 35.1936 9.30027 35.2368C9.86994 35.4005 10.2635 36.0087 10.4713 36.5316C10.6983 37.1205 10.6171 38.4855 10.6089 38.5956C11.3901 38.6407 12.1674 38.7377 12.9357 38.886C13.3829 38.9699 13.8329 39.069 14.2815 39.1736C14.0833 39.0951 13.9072 39.0236 13.8838 39.0112C13.2219 38.6575 12.1541 37.5884 12.3027 36.7628C12.3313 36.6263 12.3883 36.4974 12.4699 36.3844C12.5515 36.2715 12.656 36.1769 12.7766 36.107C12.8972 36.037 13.0311 35.9932 13.1697 35.9784C13.3083 35.9636 13.4485 35.9782 13.5811 36.0211C14.1507 36.1848 14.5512 36.7944 14.7521 37.3173C14.953 37.8402 14.9103 39.0126 14.8897 39.3208C15.0617 39.3621 15.2337 39.402 15.4043 39.4446C16.2299 39.6483 17.0555 39.8574 17.8591 40.0336C18.144 40.0969 18.4288 40.1492 18.7123 40.2014C18.5361 40.1313 18.3889 40.0721 18.3683 40.0638C17.7064 39.7116 16.6372 38.641 16.7872 37.8154C16.8157 37.679 16.8727 37.5501 16.9543 37.4372C17.036 37.3242 17.1405 37.2298 17.2611 37.1599C17.3817 37.0901 17.5157 37.0464 17.6543 37.0318C17.7929 37.0172 17.933 37.032 18.0655 37.0751C18.6338 37.2389 19.0356 37.8484 19.2365 38.37C19.4374 38.8915 19.3989 39.9524 19.3741 40.3184C19.6658 40.3638 19.9589 40.4092 20.2438 40.4395C20.4392 40.456 20.6249 40.4863 20.8217 40.4918L21.401 40.5207C21.7698 40.5207 22.1496 40.5317 22.5101 40.5276C22.7591 40.5276 22.9986 40.5207 23.238 40.5152C22.9532 40.456 22.3972 40.328 22.3518 40.3115C21.7389 40.0696 21.198 39.6751 20.7804 39.1653C20.7113 39.1413 20.6445 39.1109 20.5809 39.0745C20.4576 39.0093 20.3494 38.9189 20.2634 38.8092C20.1774 38.6994 20.1155 38.5728 20.0818 38.4375C20.048 38.3022 20.0432 38.1613 20.0675 38.024C20.0919 37.8867 20.1449 37.7561 20.2231 37.6407C20.7116 36.9595 22.2239 36.9815 22.9367 37.2113C22.9793 37.2251 23.4196 37.4219 23.6948 37.5512C23.5449 37.4508 23.3976 37.3545 23.2435 37.2485C22.938 37.0421 22.6394 36.8274 22.3174 36.5976L21.8675 36.233C21.712 36.1188 21.562 35.9784 21.4065 35.8491C21.0543 35.545 20.7102 35.2175 20.3717 34.8859C20.1915 35.1528 19.5337 36.0913 19.0549 36.3871C18.576 36.683 17.8922 36.9251 17.3404 36.7119C16.7886 36.4986 16.4941 35.8862 16.7679 35.3496C17.1477 34.601 18.6476 34.3946 19.3824 34.5116C19.4292 34.5198 19.9493 34.6643 20.2341 34.7483C20.0332 34.5446 19.831 34.3423 19.6328 34.1291C19.0631 33.5154 18.5045 32.8755 17.9458 32.2398C17.7738 32.0458 17.6004 31.8531 17.4284 31.6605C17.3651 31.7568 16.6028 32.8893 16.0717 33.2209C15.5969 33.5153 14.9089 33.7575 14.3571 33.5442C14.2255 33.4985 14.105 33.4256 14.0034 33.3302C13.9018 33.2348 13.8213 33.1192 13.7674 32.9907C13.7134 32.8622 13.687 32.7238 13.69 32.5845C13.693 32.4452 13.7253 32.308 13.7847 32.182C14.1659 31.4348 15.6644 31.227 16.3992 31.3454C16.4556 31.355 17.2055 31.5628 17.3927 31.6206C17.0129 31.1954 16.6303 30.7757 16.2368 30.3821C15.7071 29.8419 15.1431 29.3363 14.5484 28.8685C14.5195 28.9139 13.7338 30.0987 13.1862 30.4386C12.7101 30.733 12.022 30.9766 11.4703 30.7633C11.3386 30.7174 11.218 30.6444 11.1164 30.5488C11.0148 30.4533 10.9345 30.3375 10.8806 30.2088C10.8268 30.0802 10.8006 29.9417 10.8038 29.8023C10.807 29.6629 10.8395 29.5257 10.8992 29.3997C11.279 28.6525 12.7775 28.4461 13.5136 28.563C13.5728 28.5727 14.3792 28.7983 14.5223 28.8493C14.4879 28.8217 14.4548 28.7901 14.4191 28.7639C13.8094 28.312 13.1611 27.9146 12.4816 27.5764C12.1087 27.3865 11.7413 27.2242 11.3808 27.0742C11.257 27.3109 10.679 28.3814 10.2208 28.7419C9.76261 29.1024 9.12001 29.4038 8.55033 29.2524C8.41451 29.2212 8.28677 29.1618 8.17541 29.0781C8.06405 28.9943 7.97155 28.888 7.90394 28.7661C7.83633 28.6443 7.79511 28.5096 7.78296 28.3707C7.77081 28.2319 7.78801 28.0921 7.83343 27.9603C8.12789 27.176 9.59474 26.8059 10.3433 26.8416C10.3846 26.8416 10.796 26.9091 11.0946 26.9614C10.9309 26.8967 10.763 26.8238 10.6047 26.7673C10.0103 26.5444 9.453 26.3765 8.95351 26.2307C8.6783 26.1509 8.41411 26.0848 8.1733 26.0243C7.93112 26.1922 6.94727 26.8582 6.38447 26.9627C5.82168 27.0673 5.10477 27.0453 4.6672 26.6476C4.22962 26.2499 4.17596 25.5743 4.62592 25.1711C5.24926 24.6097 6.7216 24.9579 7.36971 25.3335C7.42475 25.3665 8.24211 25.9761 8.22972 25.9858L8.21458 25.9954C8.44713 26.0491 8.69619 26.1082 8.96727 26.1784C9.46677 26.316 10.0282 26.4687 10.6295 26.6806C11.2798 26.9009 11.9166 27.1592 12.5367 27.454C13.2322 27.7816 13.8975 28.1697 14.525 28.614L14.5457 28.6318C14.3984 28.4351 14.0063 27.8709 13.9801 27.8241C13.6237 27.165 13.3224 25.683 13.9031 25.0721C14.0021 24.9742 14.1207 24.8983 14.251 24.8492C14.3814 24.8002 14.5206 24.7791 14.6596 24.7874C14.7986 24.7957 14.9343 24.8332 15.0578 24.8974C15.1814 24.9617 15.2901 25.0512 15.3768 25.1601C15.7621 25.6101 15.7593 26.3394 15.6396 26.8857C15.502 27.5021 14.6764 28.5961 14.6172 28.6828C15.2503 29.1525 15.8511 29.6641 16.4157 30.2143C16.7432 30.5321 17.0638 30.861 17.3789 31.1954C17.2578 31.022 17.1491 30.8651 17.1367 30.8417C16.7803 30.1826 16.479 28.6993 17.0597 28.0897C17.1587 27.9918 17.2773 27.9159 17.4076 27.8668C17.5379 27.8178 17.6771 27.7968 17.8162 27.8051C17.9552 27.8134 18.0909 27.8508 18.2144 27.9151C18.338 27.9793 18.4467 28.0688 18.5334 28.1778C18.9187 28.6277 18.9159 29.357 18.7962 29.9033C18.6765 30.4496 17.9926 31.4045 17.8082 31.6536C17.9293 31.7829 18.0504 31.9109 18.1701 32.0403C18.7439 32.665 19.3136 33.2897 19.8915 33.8855C20.0952 34.096 20.3043 34.2983 20.5107 34.4965C20.4034 34.341 20.314 34.2102 20.3016 34.1882C19.9452 33.5291 19.6438 32.0471 20.2245 31.4362C20.6373 31 21.3253 31.0839 21.6982 31.5242C22.0711 31.9646 22.0808 32.7049 21.9611 33.2512C21.8413 33.7974 21.2235 34.6588 21.0061 34.9547C21.2249 35.1542 21.4437 35.3537 21.6652 35.5367C21.8179 35.6578 21.9583 35.7858 22.1193 35.8986L22.5858 36.2413C22.8912 36.449 23.2036 36.6651 23.5063 36.8591C23.7155 36.9967 23.9191 37.1233 24.1214 37.2513C23.9164 37.0448 23.5228 36.6307 23.4939 36.5921C23.0412 35.9949 22.5197 34.5763 23.0013 33.8883C23.0844 33.7764 23.1901 33.6833 23.3116 33.615C23.433 33.5467 23.5674 33.5047 23.7062 33.4917C23.8449 33.4788 23.9848 33.4951 24.1168 33.5397C24.2488 33.5843 24.3699 33.6562 24.4723 33.7507C24.9195 34.1373 25.0227 34.8583 24.9924 35.417C24.9525 36.0321 24.3374 37.1935 24.259 37.3434C24.5948 37.5581 24.9236 37.7604 25.2387 37.9461Z" fill="#BC9434"/>
<path d="M6.87985 38.9506C6.87985 38.9658 5.86985 38.8543 5.80655 38.8406C5.07589 38.6741 3.76178 37.9241 3.68748 37.0889C3.67921 36.9497 3.70032 36.8104 3.74944 36.6799C3.79856 36.5494 3.87458 36.4308 3.97257 36.3316C4.07055 36.2325 4.18831 36.1551 4.31818 36.1044C4.44805 36.0537 4.58713 36.031 4.72638 36.0376C5.31807 36.0445 5.86572 36.5261 6.19734 36.9774C6.58676 37.5058 6.87985 38.9493 6.87985 38.9506Z" fill="#BC9434"/>
<path d="M79.9769 24.9069C79.9439 25.5633 80.4957 26.9283 80.4957 26.9297C80.4957 26.9311 81.2855 26.2926 81.3309 26.2417C81.8483 25.6995 82.5308 24.3496 82.1317 23.6121C82.062 23.4914 81.9677 23.3867 81.8548 23.3048C81.742 23.2229 81.6132 23.1657 81.4767 23.1369C81.3403 23.1081 81.1994 23.1083 81.0631 23.1376C80.9268 23.1668 80.7981 23.2244 80.6855 23.3066C80.1957 23.6437 80.0044 24.3483 79.9769 24.9069Z" fill="#BC9434"/>
<path d="M66.5856 37.9461L66.4989 37.997L66.4893 38.5901L66.8443 38.3713C67.1869 38.158 67.5488 37.9241 67.9176 37.6833C68.2036 37.995 68.5078 38.2895 68.8285 38.5653C68.545 39.1323 68.4267 40.3542 68.4157 40.511C68.018 40.5014 67.6327 40.4876 67.2681 40.4698C67.0163 40.4574 66.7755 40.4436 66.5443 40.4285L66.7411 40.95C66.9062 40.95 67.0741 40.9624 67.2488 40.9665C67.652 40.9775 68.0841 40.983 68.5271 40.983C68.5519 41.1413 68.7638 42.4416 69.1037 42.9576C69.4119 43.4241 69.9293 43.9332 70.5251 43.9704C70.6638 43.9841 70.8039 43.9684 70.9362 43.9244C71.0684 43.8804 71.1899 43.809 71.2928 43.7149C71.3956 43.6207 71.4774 43.506 71.5329 43.3781C71.5884 43.2503 71.6164 43.1121 71.6149 42.9727C71.5833 42.1334 70.3091 41.3215 69.5881 41.1151C69.5454 41.1041 69.0693 41.0257 68.7624 40.9775C68.9441 40.9775 69.1188 40.9775 69.3129 40.9775C69.6816 40.9775 70.049 40.9582 70.4439 40.9445L71.0219 40.9032C71.2159 40.8936 71.4182 40.8592 71.6191 40.8372C72.0814 40.778 72.5479 40.6996 73.0157 40.6019C73.0157 40.9238 73.0501 42.0687 73.2909 42.5792C73.5317 43.0897 73.9652 43.6704 74.5431 43.797C74.6785 43.8312 74.8196 43.8365 74.9571 43.8126C75.0947 43.7887 75.2257 43.7361 75.3416 43.6582C75.4575 43.5803 75.5557 43.4789 75.6299 43.3606C75.704 43.2422 75.7524 43.1096 75.7719 42.9714C75.8668 42.1375 74.7316 41.1385 74.0491 40.8289C74.0065 40.8096 73.4987 40.6431 73.2084 40.5537C73.4836 40.4945 73.7684 40.4381 74.0519 40.3693C74.8651 40.1712 75.6838 39.9455 76.5012 39.724L77.236 39.5354C77.236 39.651 77.2429 41.0133 77.5112 41.5843C77.7451 42.0921 78.1841 42.6755 78.762 42.8021C79.3399 42.9287 79.922 42.5806 79.9908 41.9765C80.0857 41.1426 78.9505 40.1436 78.268 39.834C78.2171 39.8106 77.4768 39.5712 77.2855 39.5203C77.8359 39.3744 78.3863 39.2355 78.9368 39.1213C79.6765 38.9625 80.4257 38.8517 81.1797 38.7896C81.1797 38.8433 81.1797 40.2647 81.4549 40.8537C81.6888 41.3614 82.1291 41.9435 82.7071 42.0701C82.8424 42.1045 82.9834 42.11 83.121 42.0862C83.2586 42.0623 83.3896 42.0097 83.5054 41.9318C83.6213 41.8539 83.7194 41.7524 83.7933 41.6339C83.8673 41.5155 83.9153 41.3828 83.9345 41.2445C84.0308 40.412 82.8956 39.4116 82.2131 39.102C82.1594 39.0786 81.3627 38.8268 81.2141 38.7841C81.2581 38.7841 81.3035 38.7731 81.3517 38.7704C82.1093 38.7293 82.8691 38.7555 83.6221 38.8488C84.0349 38.8956 84.4353 38.963 84.8179 39.0373C84.7917 39.3029 84.6803 40.5138 84.866 41.0683C85.0435 41.5995 85.4164 42.2256 85.9765 42.4155C86.1064 42.4634 86.2448 42.4836 86.383 42.4749C86.5211 42.4662 86.656 42.4287 86.7788 42.3648C86.9016 42.3009 87.0097 42.2121 87.0962 42.104C87.1827 41.9959 87.2456 41.8709 87.281 41.7371C87.4681 40.9115 86.4553 39.801 85.8045 39.4185C85.7701 39.3978 85.3917 39.2258 85.1165 39.1034C85.2885 39.1405 85.4674 39.1749 85.6325 39.2121C86.2503 39.3497 86.8076 39.5203 87.3002 39.673C87.5754 39.7625 87.8314 39.8478 88.0653 39.9304C88.174 40.2056 88.6281 41.3064 89.0395 41.7013C89.4509 42.0962 90.0605 42.4746 90.6453 42.3893C90.7837 42.3726 90.9171 42.3269 91.0367 42.2554C91.1563 42.1838 91.2596 42.0879 91.3398 41.9738C91.4199 41.8598 91.4752 41.7302 91.5021 41.5934C91.529 41.4566 91.5268 41.3157 91.4957 41.1798C91.2838 40.3679 89.8638 39.845 89.1166 39.8038C89.0519 39.8038 88.035 39.8588 88.0405 39.8726V39.8891C87.8176 39.8051 87.5768 39.7171 87.3126 39.6276C86.8214 39.4639 86.2668 39.2836 85.649 39.1281C84.9853 38.9511 84.3117 38.8133 83.6317 38.7153C82.8711 38.6043 82.1021 38.561 81.3338 38.586H81.3063C81.5374 38.5034 82.1773 38.2502 82.2241 38.2255C82.8846 37.8718 83.9537 36.8027 83.8037 35.977C83.7752 35.8406 83.7183 35.7117 83.6366 35.5988C83.555 35.4859 83.4504 35.3914 83.3298 35.3216C83.2092 35.2517 83.0753 35.2081 82.9367 35.1934C82.7981 35.1788 82.6579 35.1936 82.5254 35.2367C81.9571 35.4005 81.5553 36.0087 81.3544 36.5316C81.1274 37.1205 81.2168 38.4855 81.2168 38.5956C80.4347 38.64 79.6565 38.7366 78.8872 38.8846C78.4386 38.9685 77.99 39.0676 77.5415 39.1722C77.7396 39.0937 77.9157 39.0222 77.9391 39.0098C78.5996 38.6562 79.6688 37.587 79.5202 36.7614C79.4916 36.6249 79.4347 36.496 79.353 36.3831C79.2714 36.2701 79.1669 36.1755 79.0463 36.1056C78.9258 36.0356 78.7918 35.9918 78.6532 35.977C78.5146 35.9622 78.3745 35.9768 78.2419 36.0197C77.6722 36.1834 77.2704 36.793 77.0695 37.3159C76.8686 37.8388 76.9126 39.0112 76.9319 39.3194L76.4159 39.4432C75.5903 39.6469 74.7729 39.856 73.9624 40.0322C73.6762 40.0955 73.3928 40.1478 73.1093 40.2001C73.2841 40.1299 73.4313 40.0707 73.4533 40.0625C74.1138 39.7102 75.183 38.6396 75.0344 37.814C75.0058 37.6776 74.9489 37.5487 74.8672 37.4358C74.7856 37.3229 74.681 37.2284 74.5604 37.1585C74.4398 37.0887 74.3059 37.045 74.1673 37.0304C74.0287 37.0158 73.8886 37.0306 73.756 37.0737C73.1864 37.2375 72.7859 37.8471 72.585 38.3686C72.3841 38.8901 72.4199 39.9482 72.4406 40.3129C72.1488 40.3583 71.8557 40.4037 71.5709 40.434C71.3755 40.4505 71.1884 40.4808 70.9916 40.4863L70.4137 40.5152C70.0449 40.5152 69.6637 40.5262 69.3046 40.522C69.0542 40.522 68.8161 40.5152 68.5767 40.5097C68.8615 40.4505 69.4174 40.3225 69.4615 40.306C70.0747 40.0646 70.6157 39.67 71.0329 39.1598C71.1025 39.1357 71.1697 39.1053 71.2338 39.069C71.3569 39.0037 71.4649 38.9132 71.5508 38.8034C71.6367 38.6936 71.6985 38.567 71.7322 38.4318C71.766 38.2966 71.7709 38.1558 71.7466 38.0185C71.7224 37.8813 71.6696 37.7506 71.5915 37.6351C71.1031 36.954 69.5894 36.976 68.8767 37.2058C68.8354 37.2196 68.395 37.4164 68.1185 37.5457C68.2698 37.4453 68.4171 37.3489 68.5698 37.243C68.8753 37.0366 69.1739 36.8219 69.4959 36.5921L69.9555 36.2385C70.1109 36.1243 70.2609 35.9839 70.4164 35.8546C70.7701 35.5505 71.1127 35.223 71.4512 34.8914C71.6328 35.1583 72.2906 36.0968 72.7681 36.3926C73.2455 36.6884 73.9335 36.921 74.4839 36.7132C75.0344 36.5054 75.3288 35.8876 75.055 35.351C74.6752 34.6024 73.1767 34.396 72.4406 34.513C72.3951 34.5212 71.8736 34.6657 71.5888 34.7496C71.7911 34.546 71.9933 34.3437 72.1901 34.1304C72.7612 33.5167 73.3185 32.8769 73.8785 32.2411C74.0491 32.0471 74.2225 31.8545 74.3945 31.6618C74.4592 31.7582 75.2201 32.8906 75.7513 33.2222C76.2274 33.5167 76.9154 33.7589 77.4672 33.5456C77.5988 33.4999 77.7193 33.427 77.8209 33.3316C77.9225 33.2362 78.0029 33.1204 78.0567 32.9919C78.1106 32.8634 78.1368 32.725 78.1336 32.5857C78.1304 32.4463 78.0979 32.3093 78.0382 32.1833C77.6584 31.4362 76.1599 31.2284 75.4238 31.3467C75.3687 31.3564 74.6188 31.5641 74.4303 31.6219C74.8101 31.1967 75.194 30.7771 75.5875 30.3835C76.1164 29.8429 76.68 29.3373 77.2745 28.8699C77.3048 28.9153 78.0905 30.1 78.6382 30.4399C79.1143 30.7344 79.8009 30.978 80.3541 30.7647C80.4857 30.7188 80.6063 30.6457 80.7079 30.5502C80.8095 30.4547 80.8898 30.3388 80.9437 30.2102C80.9976 30.0816 81.0237 29.943 81.0205 29.8036C81.0173 29.6642 80.9848 29.527 80.9251 29.401C80.5453 28.6538 79.0468 28.4474 78.3107 28.5644C78.2529 28.574 77.4465 28.7997 77.3034 28.8506C77.3378 28.8231 77.3708 28.7915 77.4052 28.7653C78.0154 28.3133 78.6642 27.916 79.3441 27.5778C79.717 27.3879 80.0844 27.2255 80.4449 27.0755C80.5687 27.3122 81.1453 28.3828 81.6049 28.7433C82.0645 29.1038 82.7057 29.4052 83.274 29.2538C83.4099 29.2228 83.5378 29.1635 83.6493 29.0798C83.7609 28.9961 83.8535 28.8898 83.9213 28.7679C83.989 28.6461 84.0303 28.5113 84.0426 28.3724C84.0548 28.2335 84.0377 28.0936 83.9923 27.9617C83.6964 27.1774 82.2296 26.8072 81.481 26.843C81.4411 26.843 81.0297 26.9104 80.7311 26.9627C80.8948 26.898 81.0627 26.8251 81.221 26.7687C81.814 26.5458 82.3713 26.3779 82.8722 26.232C83.1474 26.1522 83.4116 26.0862 83.651 26.0256C83.8932 26.1935 84.877 26.8595 85.4398 26.9641C86.0026 27.0687 86.7182 27.0467 87.1571 26.649C87.5961 26.2513 87.6484 25.5757 87.1984 25.1725C86.5737 24.6111 85.1013 24.9592 84.4546 25.3349C84.3982 25.3679 83.5822 25.9775 83.5946 25.9871L83.6097 25.9967C83.3758 26.0504 83.1267 26.1096 82.857 26.1798C82.3575 26.3174 81.7948 26.4701 81.1934 26.682C80.5436 26.9023 79.9072 27.1605 79.2876 27.4553C78.5918 27.7823 77.9264 28.1705 77.2993 28.6153L77.2773 28.6332C77.4245 28.4364 77.818 27.8723 77.8428 27.8255C78.1992 27.1664 78.5006 25.6844 77.9212 25.0734C77.8221 24.9755 77.7034 24.8996 77.573 24.8505C77.4425 24.8015 77.3032 24.7804 77.1641 24.7887C77.025 24.797 76.8891 24.8345 76.7655 24.8987C76.6418 24.963 76.533 25.0525 76.4462 25.1615C76.0622 25.6115 76.0636 26.3408 76.1847 26.887C76.3223 27.5035 77.1479 28.5974 77.2071 28.6841C76.5804 29.1527 75.9855 29.6625 75.4265 30.2101C75.099 30.528 74.7798 30.8569 74.4633 31.1912C74.5844 31.0179 74.6917 30.861 74.7055 30.8376C75.0619 30.1785 75.3618 28.6951 74.7825 28.0856C74.6834 27.9876 74.5647 27.9117 74.4342 27.8626C74.3038 27.8136 74.1645 27.7925 74.0254 27.8008C73.8862 27.8091 73.7504 27.8466 73.6267 27.9108C73.5031 27.9751 73.3943 28.0646 73.3074 28.1736C72.9235 28.6236 72.9249 29.3529 73.046 29.8991C73.1671 30.4454 73.8496 31.4004 74.0326 31.6494L73.6583 32.0444C73.0845 32.6691 72.5135 33.2938 71.9355 33.8896C71.7333 34.1001 71.5227 34.3024 71.3163 34.5006C71.425 34.3451 71.5145 34.2144 71.5255 34.1923C71.8819 33.5332 72.1832 32.0512 71.6039 31.4403C71.5048 31.3424 71.3861 31.2664 71.2556 31.2174C71.1252 31.1683 70.9859 31.1473 70.8468 31.1556C70.7076 31.1639 70.5718 31.2014 70.4481 31.2656C70.3245 31.3298 70.2157 31.4193 70.1288 31.5284C69.7449 31.9783 69.7463 32.709 69.8674 33.2553C69.9885 33.8015 70.6049 34.6629 70.821 34.9588C70.6022 35.1583 70.3848 35.3578 70.1632 35.5408C70.0091 35.6619 69.8701 35.7899 69.7091 35.9027L69.2413 36.2454C68.9372 36.4531 68.6235 36.6692 68.3207 36.8632C68.1116 37.0008 67.9079 37.1274 67.707 37.2554C67.9121 37.049 68.3056 36.6348 68.3345 36.5963C68.7858 35.9991 69.3087 34.5804 68.8271 33.8924C68.744 33.7805 68.6383 33.6875 68.5169 33.6191C68.3954 33.5508 68.261 33.5088 68.1223 33.4958C67.9836 33.4829 67.8437 33.4992 67.7117 33.5438C67.5797 33.5884 67.4586 33.6603 67.3562 33.7548C66.9076 34.1414 66.8057 34.8625 66.8346 35.4211C66.8759 36.0362 67.491 37.1976 67.5681 37.3476C67.2296 37.5581 66.8993 37.7604 66.5856 37.9461Z" fill="#BC9434"/>
<path d="M84.9417 38.9506C84.9417 38.9658 85.9516 38.8543 86.0149 38.8405C86.7442 38.674 88.0583 37.9241 88.1326 37.0889C88.1863 36.4875 87.6744 36.0307 87.0951 36.0376C86.5158 36.0445 85.9558 36.5261 85.6242 36.9774C85.2375 37.5058 84.9417 38.9492 84.9417 38.9506Z" fill="#BC9434"/>
<path d="M27.5047 13.3473L25.1624 15.1813L28.005 18.8119L30.3474 16.9779L27.5047 13.3473Z" fill="#BC9434" stroke="#BC9434" stroke-width="0.561983" stroke-linejoin="round"/>
<path d="M27.3172 11.4182L23.3345 14.5365L25.3518 17.1129L29.3345 13.9946L27.3172 11.4182Z" fill="#BC9434" stroke="#BC9434" stroke-width="0.561983" stroke-linejoin="round"/>
<path d="M24.1943 13.9855L25.6736 15.8748" stroke="#BC9434" stroke-width="0.561983" stroke-linejoin="round"/>
<path d="M25.5428 12.9301L27.0221 14.818" stroke="#BC9434" stroke-width="0.561983" stroke-linejoin="round"/>
<path d="M25.1755 13.9428L26.6547 15.8307" stroke="#BC9434" stroke-width="0.561983" stroke-linejoin="round"/>
<path d="M57.8939 16.9805L60.2363 18.8145L63.079 15.1839L60.7366 13.3499L57.8939 16.9805Z" fill="#BC9434" stroke="#BC9434" stroke-width="0.561983" stroke-linejoin="round"/>
<path d="M58.909 13.9939L62.8917 17.1123L64.909 14.5359L60.9263 11.4175L58.909 13.9939Z" fill="#BC9434" stroke="#BC9434" stroke-width="0.561983" stroke-linejoin="round"/>
<path d="M64.0508 13.9855L62.5715 15.8748" stroke="#BC9434" stroke-width="0.561983" stroke-linejoin="round"/>
<path d="M62.7024 12.9301L61.2231 14.818" stroke="#BC9434" stroke-width="0.561983" stroke-linejoin="round"/>
<path d="M63.0697 13.9428L61.5905 15.8307" stroke="#BC9434" stroke-width="0.561983" stroke-linejoin="round"/>
<path d="M46.3552 6.96912H41.5308V11.8003H46.3552V6.96912Z" fill="#BC9434" stroke="#BC9434" stroke-width="0.561983" stroke-linejoin="round"/>
<path d="M47.434 4.19778H40.452V9.029H47.434V4.19778Z" fill="#BC9434" stroke="#BC9434" stroke-width="0.561983" stroke-linejoin="round"/>
<path d="M41.0795 4.1813V8.20755" stroke="#BC9434" stroke-width="0.561983" stroke-linejoin="round"/>
<path d="M41.6547 8.3878V6.23019" stroke="#BC9434" stroke-width="0.561983" stroke-linejoin="round"/>
<path d="M42.2656 4.28998V7.34475" stroke="#BC9434" stroke-width="0.561983" stroke-linejoin="round"/>
<path d="M42.8766 5.7637V8.56804" stroke="#BC9434" stroke-width="0.561983" stroke-linejoin="round"/>
<path d="M43.8123 4.32581V7.48928" stroke="#BC9434" stroke-width="0.561983" stroke-linejoin="round"/>
<path d="M61.7878 54.0373C71.6437 44.1814 71.6437 28.2018 61.7878 18.3459C51.9319 8.48998 35.9523 8.48998 26.0964 18.3459C16.2405 28.2018 16.2405 44.1814 26.0964 54.0373C35.9523 63.8932 51.9319 63.8932 61.7878 54.0373Z" fill="#BC9434" stroke="#BC9434" stroke-width="0.561983" stroke-linejoin="round"/>
<path d="M59.6958 51.9453C68.3964 43.2448 68.3964 29.1384 59.6958 20.4378C50.9953 11.7373 36.8889 11.7373 28.1883 20.4378C19.4878 29.1384 19.4878 43.2448 28.1883 51.9454C36.8889 60.6459 50.9953 60.6459 59.6958 51.9453Z" fill="white" stroke="#BC9434" stroke-width="0.561983" stroke-linejoin="round"/>
<path d="M58.4611 50.7106C66.4797 42.692 66.4797 29.6912 58.4611 21.6726C50.4424 13.6539 37.4417 13.6539 29.423 21.6726C21.4044 29.6912 21.4044 42.692 29.423 50.7106C37.4417 58.7293 50.4424 58.7293 58.4611 50.7106Z" fill="white" stroke="#BC9434" stroke-width="0.561983" stroke-linejoin="round"/>
<path d="M43.943 15.6587V18.4424" stroke="#BC9434" stroke-width="0.561983" stroke-linejoin="round"/>
<path d="M43.943 53.9204V56.7041" stroke="#BC9434" stroke-width="0.561983" stroke-linejoin="round"/>
<path d="M64.465 36.1821H61.6813" stroke="#BC9434" stroke-width="0.561983" stroke-linejoin="round"/>
<path d="M26.2034 36.1821H23.4197" stroke="#BC9434" stroke-width="0.561983" stroke-linejoin="round"/>
<path d="M58.4546 21.6705L56.4855 23.6382" stroke="#BC9434" stroke-width="0.561983" stroke-linejoin="round"/>
<path d="M31.3992 48.7245L29.4315 50.6936" stroke="#BC9434" stroke-width="0.561983" stroke-linejoin="round"/>
<path d="M29.4315 21.6705L31.3992 23.6382" stroke="#BC9434" stroke-width="0.561983" stroke-linejoin="round"/>
<path d="M56.4855 48.7245L58.4546 50.6936" stroke="#BC9434" stroke-width="0.561983" stroke-linejoin="round"/>
<path d="M49.0082 34.2267L49.3288 35.45L28.3444 40.511L28.2481 40.1436L49.0082 34.2267Z" fill="#BC9434" stroke="#BC9434" stroke-width="0.561983" stroke-linejoin="round"/>
<path d="M44.7479 36.1917C44.7479 36.0325 44.7007 35.8769 44.6123 35.7445C44.5238 35.6121 44.3981 35.509 44.251 35.448C44.1039 35.3871 43.9421 35.3712 43.7859 35.4022C43.6298 35.4333 43.4863 35.5099 43.3738 35.6225C43.2612 35.7351 43.1845 35.8785 43.1535 36.0347C43.1224 36.1908 43.1383 36.3527 43.1993 36.4998C43.2602 36.6469 43.3634 36.7726 43.4958 36.861C43.6281 36.9495 43.7838 36.9967 43.943 36.9967C44.0487 36.9967 44.1534 36.9759 44.251 36.9354C44.3487 36.895 44.4374 36.8357 44.5122 36.7609C44.5869 36.6862 44.6462 36.5974 44.6867 36.4998C44.7271 36.4021 44.7479 36.2974 44.7479 36.1917Z" fill="white" stroke="#BC9434" stroke-width="0.561983" stroke-linejoin="round"/>
<path d="M36.2112 51.449L34.9521 50.6234C34.9521 50.6234 34.1719 51.3788 34.1265 51.449C34.0811 51.5192 31.9372 51.7751 31.512 51.7751C31.0868 51.7751 30.7828 51.6747 30.7318 51.877C30.6809 52.0792 31.3359 52.5306 32.2922 52.7824C32.6693 52.8815 33.2197 53.0796 33.7618 53.2736L33.6765 53.4869C33.6765 53.4869 35.1103 54.0153 35.3374 54.0373C35.4144 54.047 35.4887 53.93 35.5534 53.7731C35.7777 53.5709 36.2112 51.449 36.2112 51.449Z" fill="#BC9434" stroke="#BC9434" stroke-width="0.561983" stroke-linejoin="round"/>
<path d="M57.5312 40.6803L57.834 42.1499C57.834 42.1499 58.9197 42.1636 59.0091 42.1499C59.0985 42.1361 60.7979 43.4612 61.0965 43.7626C61.3951 44.0639 61.5424 44.3474 61.7212 44.24C61.9001 44.1327 61.7529 43.3511 61.252 42.498C61.0539 42.1623 60.8021 41.6339 60.5557 41.1137L60.7663 41.0229C60.7663 41.0229 60.1209 39.6373 59.9778 39.4597C59.9283 39.3992 59.7934 39.4295 59.6379 39.4941C59.3297 39.4845 57.5312 40.6803 57.5312 40.6803Z" fill="#BC9434" stroke="#BC9434" stroke-width="0.561983" stroke-linejoin="round"/>
<path d="M42.8353 36.749C42.8353 36.749 42.4321 37.0008 42.4831 37.1522C42.534 37.3035 42.8601 37.554 42.8601 37.554C42.8601 37.554 37.5404 42.1403 37.4399 42.4925C37.3395 42.8448 34.1237 50.6179 34.1237 50.6179L36.5895 51.8563L39.881 44.0323L45.4773 40.4546C45.4773 40.4546 49.5228 46.2092 49.926 46.1596C50.3291 46.1101 58.6059 42.2545 58.6059 42.2545L57.7982 40.3611L50.8052 42.7553L48.6215 37.8567C48.6215 37.8567 49.1499 36.9499 48.8238 36.0679C48.4976 35.1858 47.5399 33.8277 47.5399 33.8277L42.8353 36.749Z" fill="#BC9434" stroke="#BC9434" stroke-width="0.561983" stroke-linejoin="round"/>
<path d="M45.4759 40.4477C45.4759 40.4477 48.1564 38.8433 48.3834 38.6162" stroke="#999999" stroke-width="0.561983" stroke-linejoin="round"/>
<path d="M44.0132 36.7242C44.3225 36.4484 44.6518 36.1959 44.9984 35.9688C45.5268 35.6674 46.735 35.717 46.735 35.717" stroke="#999999" stroke-width="0.561983" stroke-linejoin="round"/>
<path d="M43.1614 37.4783C43.1614 37.4783 43.3403 37.3132 43.5935 37.0889" stroke="#999999" stroke-width="0.561983" stroke-linejoin="round"/>
<path d="M47.3129 35.4404C47.3129 35.4404 46.307 35.3138 45.524 35.5161" stroke="#999999" stroke-width="0.561983" stroke-linejoin="round"/>
<path d="M46.1047 40.1959C46.1047 40.1959 48.1935 40.5743 48.8733 40.5234" stroke="#999999" stroke-width="0.561983" stroke-linejoin="round"/>
<path d="M48.6449 41.8127C48.8073 41.8609 48.9683 41.9008 49.1251 41.9325" stroke="#999999" stroke-width="0.561983" stroke-linejoin="round"/>
<path d="M46.08 40.65C46.7567 41.0494 47.4666 41.3896 48.2018 41.6669" stroke="#999999" stroke-width="0.561983" stroke-linejoin="round"/>
<path d="M42.4308 36.2963L42.834 36.749L47.54 33.8291L47.2372 33.5277L42.4308 36.2963Z" fill="#BC9434" stroke="#BC9434" stroke-width="0.561983" stroke-linejoin="round"/>
<path d="M49.2765 30.4675L49.7086 31.0495L50.7653 30.6835L50.5493 30.1647L49.2765 30.4675Z" fill="white" stroke="#BC9434" stroke-width="0.561983" stroke-linejoin="round"/>
<path d="M38.1569 26.2238C38.1569 26.2238 36.0639 26.2541 34.992 26.2238C33.9201 26.1935 30.9245 25.5963 30.6851 26.0449C30.4456 26.4935 30.9534 27.7196 32.4202 28.1984C33.8871 28.6773 37.0863 29.1258 37.0863 29.1258C37.0863 29.1258 38.4018 30.7771 39.1503 31.7582C39.8989 32.7393 41.2735 35.0194 41.3933 35.2285C41.513 35.4377 42.051 36.7242 42.7693 36.4545C43.4876 36.1848 47.4051 33.763 47.4051 33.5828C47.4051 33.4025 47.4051 33.17 47.2868 33.0145C47.1684 32.859 45.7608 31.1307 45.5213 30.6752C45.2819 30.2198 44.4205 28.014 44.4205 28.014L46.3043 27.5654C46.3043 27.5654 48.5183 30.0175 48.9366 30.4069C49.3549 30.7963 49.7141 30.6464 49.7141 30.6464C49.7141 30.6464 50.7021 30.4661 50.731 30.1675C50.7598 29.8689 47.4409 24.7831 47.112 24.6042C46.7831 24.4254 44.5691 25.1725 43.672 25.3211C42.7748 25.4698 41.6974 25.5303 40.4411 25.8303C39.6891 26.0114 38.9261 26.1429 38.1569 26.2238Z" fill="white" stroke="#BC9434" stroke-width="0.561983" stroke-linejoin="round"/>
<path d="M44.4054 28.0195L41.4139 28.8561" stroke="#BC9434" stroke-width="0.561983" stroke-linejoin="round"/>
<path d="M43.0582 28.4075L42.0125 29.2455" stroke="#BC9434" stroke-width="0.561983" stroke-linejoin="round"/>
<path d="M34.5352 27.9562L34.0852 27.7498" stroke="#BC9434" stroke-width="0.561983" stroke-linejoin="round"/>
<path d="M34.9824 27.6906L37.0767 29.1258L34.8613 28.1076" stroke="#BC9434" stroke-width="0.561983" stroke-linejoin="round"/>
<path d="M42.1157 32.3086C43.1683 32.5274 45.0053 32.8493 46.5547 32.8149" stroke="#BC9434" stroke-width="0.561983" stroke-linejoin="round"/>
<path d="M41.2529 32.1132C41.2529 32.1132 41.4331 32.1586 41.74 32.2274" stroke="#BC9434" stroke-width="0.561983" stroke-linejoin="round"/>
<path d="M44.5016 32.3801C44.5016 32.3801 45.7483 32.6388 46.5808 32.6388" stroke="#BC9434" stroke-width="0.561983" stroke-linejoin="round"/>
<path d="M38.1183 27.8035L38.571 29.3185L39.1599 27.7581L38.1183 27.8035Z" fill="#BC9434" stroke="#BC9434" stroke-width="0.561983" stroke-linejoin="round"/>
<path d="M38.2545 26.6614L37.6573 27.3191L38.6866 28.1434L39.2632 27.1141L38.2545 26.6614Z" fill="white" stroke="#BC9434" stroke-width="0.561983" stroke-linejoin="round"/>
<path d="M37.6573 27.3191L37.9463 28.5342L38.3577 27.875L37.6573 27.3191Z" fill="white" stroke="#BC9434" stroke-width="0.561983" stroke-linejoin="round"/>
<path d="M35.7433 22.009C35.7433 22.009 35.3305 23.0177 35.3525 23.2846C35.3745 23.5516 35.5795 23.7167 35.5589 24.0263C35.5383 24.3359 34.8998 24.9111 35.0443 25.0555C35.1888 25.2 35.7226 25.4257 35.7226 25.4257C35.7226 25.4257 36.2992 26.6201 36.5056 26.6641C36.712 26.7082 37.8225 26.1495 37.8225 26.1495L38.6866 28.1447L40.3956 25.6142L39.8191 24.4817C39.8191 24.4817 40.3131 23.2062 39.8397 22.1563C39.3664 21.1064 37.8637 21.0444 37.1427 21.1683C36.4217 21.2921 35.8878 21.5976 35.7433 22.009Z" fill="white" stroke="#BC9434" stroke-width="0.561983" stroke-miterlimit="10"/>
<path d="M37.1235 21.7847C36.9561 21.7492 36.783 21.7511 36.6165 21.7904C36.4499 21.8296 36.2942 21.9052 36.1603 22.0118C35.647 22.3819 35.2136 22.7934 35.0086 22.4246C34.8035 22.0558 35.4406 21.4366 35.4406 21.4366C35.4406 21.4366 34.926 21.2921 35.1324 20.6963C35.3388 20.1005 36.0956 19.9753 36.0956 20.1817C36.0956 20.3881 36.0337 20.5518 36.6102 20.2642C37.1868 19.9766 37.495 19.8927 37.6189 20.223C37.7427 20.5532 38.483 20.3606 39.3265 20.8394C40.17 21.3183 40.3764 21.6224 40.1907 22.6929C40.0049 23.7635 39.965 24.2767 39.8205 24.4817C39.676 24.6868 39.1614 24.7487 38.9357 24.6675C38.7101 24.5863 38.8325 24.3579 38.8325 24.3579C38.8325 24.3579 39.4297 23.7607 39.1614 23.2874C38.8931 22.814 38.5037 23.0204 38.3798 23.2874C38.256 23.5543 38.3179 23.7813 38.1321 23.7813C37.9464 23.7813 37.7826 23.6437 37.7413 23.3493C37.7001 23.0548 37.5569 22.7989 37.4331 22.7521C37.3093 22.7053 37.001 22.9791 37.0203 22.5058C37.0275 22.2327 37.1291 21.9706 37.3079 21.7641L37.1235 21.7847Z" fill="#BC9434" stroke="#BC9434" stroke-width="0.561983" stroke-miterlimit="10"/>
<path d="M35.7446 23.8199C35.7393 23.6888 35.7824 23.5603 35.8656 23.4588C35.9488 23.3573 36.0664 23.2899 36.196 23.2695" stroke="#BC9434" stroke-width="0.561983" stroke-miterlimit="10"/>
<path d="M36.2304 24.0235C36.2703 24.135 36.2579 24.2423 36.2042 24.2616C36.1506 24.2808 36.0763 24.2038 36.0364 24.0909C35.9965 23.9781 36.0089 23.8722 36.0625 23.8529C36.1162 23.8336 36.1919 23.9107 36.2304 24.0235Z" fill="#BC9434"/>
<path d="M40.3544 24.9524L38.5641 27.2366L38.893 28.4516L40.9928 25.5289L40.3544 24.9524Z" fill="white" stroke="#BC9434" stroke-width="0.561983" stroke-linejoin="round"/>
<path d="M38.5696 29.3185C38.6008 29.4218 38.6593 29.5147 38.739 29.5874C38.8187 29.66 38.9166 29.7098 39.0224 29.7313C39.3842 29.7987 40.0172 29.5276 40.3337 28.713C40.6502 27.8984 41.3065 25.6596 41.6905 25.1161C42.0744 24.5726 43.3417 24.5519 43.9981 24.596C44.6544 24.64 45.1057 24.0084 45.7167 23.7139C46.0746 23.54 46.4554 23.4181 46.8478 23.352L47.6184 21.7848L46.0125 21.7393C46.0125 21.7393 44.4287 22.4865 44.0214 22.9613C43.6141 23.436 43.321 23.3741 42.461 23.5488C41.601 23.7236 41.1277 24.0923 40.7878 25.1326C40.4479 26.1729 39.9966 28.797 39.4985 29.1589C39.3711 29.2644 39.2183 29.3347 39.0554 29.3627C38.8924 29.3907 38.7249 29.3754 38.5696 29.3185Z" fill="#BC9434" stroke="#BC9434" stroke-width="0.561983" stroke-linejoin="round"/>
<path d="M33.0091 27.6136C33.1949 27.8076 33.2224 28.0828 33.0697 28.2314C32.9169 28.38 32.6403 28.3429 32.4546 28.1502C32.2688 27.9576 32.2413 27.681 32.394 27.5324C32.5468 27.3838 32.822 27.4264 33.0091 27.6136Z" fill="white" stroke="#BC9434" stroke-width="0.561983" stroke-linejoin="round"/>
<path d="M32.8619 27.9892L32.5633 27.6727C32.5633 27.6727 31.9496 26.0738 31.1309 25.6458C30.3121 25.2179 29.3269 25.8688 29.1219 26.4825C28.9168 27.0962 29.6434 28.1199 30.4057 28.4364C31.0179 28.6657 31.6462 28.8497 32.2853 28.9868C32.2853 28.9868 32.639 28.1571 32.8619 27.9892Z" fill="white" stroke="#BC9434" stroke-width="0.561983" stroke-linejoin="round"/>
<path d="M31.801 28.8451L31.8326 28.8864C32.1009 28.9538 32.2853 28.9937 32.2853 28.9937C32.2853 28.9937 32.639 28.1571 32.8619 27.9892L32.5633 27.6728C32.5633 27.6728 31.7074 27.8214 31.801 28.8451Z" fill="#BC9434" stroke="#BC9434" stroke-width="0.561983" stroke-linejoin="round"/>
<path d="M34.7402 30.4633C34.8486 30.6191 34.9736 30.7626 35.1131 30.8913C35.2617 31.0041 35.3167 31.1334 35.131 31.1156C34.9061 31.1102 34.6925 31.0162 34.5365 30.8541C34.3494 30.6505 34.22 30.4826 34.22 30.4826L34.7402 30.4633Z" fill="white" stroke="#BC9434" stroke-width="0.561983" stroke-linejoin="round"/>
<path d="M34.8338 29.9033C34.8338 29.9033 35.0938 30.3312 35.0016 30.4427C34.9094 30.5541 34.0522 30.5913 33.9215 30.5541C33.7907 30.517 33.8843 30.3491 33.8843 30.3491L34.8338 29.9033Z" fill="white" stroke="#BC9434" stroke-width="0.561983" stroke-linejoin="round"/>
<path d="M34.8145 29.4038C34.8145 29.4038 35.0195 29.7203 34.9823 29.8496C34.9452 29.979 34.0714 30.3711 33.8815 30.3519C33.6916 30.3326 33.715 30.1854 33.715 30.1854L34.8145 29.4038Z" fill="white" stroke="#BC9434" stroke-width="0.561983" stroke-linejoin="round"/>
<path d="M34.4622 29.0309C34.4622 29.0309 34.7966 28.9937 34.8338 29.2359C34.8709 29.4781 34.6659 29.5524 34.5365 29.6639C34.4072 29.7753 33.8485 30.1854 33.7178 30.1854C33.5871 30.1854 33.3449 29.8125 33.3449 29.8125L34.4622 29.0309Z" fill="white" stroke="#BC9434" stroke-width="0.561983" stroke-linejoin="round"/>
<path d="M32.8619 27.9893C32.8619 27.9893 33.7728 28.325 34.2008 28.4365C34.6287 28.5479 34.648 28.9016 34.4622 29.0309C34.2764 29.1603 33.6985 29.8689 33.5306 29.9061C33.3628 29.9432 33.1178 29.7574 33.1178 29.7574C33.1178 29.7574 32.5963 29.496 32.522 29.2924C32.4767 29.1691 32.3921 29.0642 32.2812 28.9938C32.2812 28.9938 32.2289 28.2314 32.8619 27.9893Z" fill="white" stroke="#BC9434" stroke-width="0.561983" stroke-linejoin="round"/>
<path d="M33.122 29.7574C33.122 29.7574 32.9734 29.4038 33.1041 29.3102C33.2348 29.2166 33.4385 29.4217 33.4385 29.4217C33.4681 29.3139 33.5186 29.2129 33.5871 29.1245" stroke="#BC9434" stroke-width="0.561983" stroke-linejoin="round"/>
<path d="M49.7154 31.0495C49.7647 31.3163 49.7955 31.5862 49.8076 31.8572C49.7925 32.0458 49.4636 32.8301 49.4471 32.8769C49.4306 32.9237 49.5572 33.1122 49.604 33.1741C49.6507 33.236 49.8709 33.2057 50.0429 33.3461C50.2149 33.4864 50.4186 33.8332 50.6704 33.7589C50.9222 33.6846 51.0832 33.3461 51.0832 33.3461C51.0832 33.3461 51.6625 33.0021 51.6776 32.8301C51.6856 32.6181 51.6591 32.4062 51.5992 32.2026C51.5524 32.065 50.7736 30.689 50.7736 30.689L49.7154 31.0495Z" fill="white" stroke="#BC9434" stroke-width="0.561983" stroke-linejoin="round"/>
<path d="M49.8792 32.7351C49.8792 32.7351 50.1764 32.7819 50.303 33.2374" stroke="#BC9434" stroke-width="0.561983" stroke-linejoin="round"/>
<path d="M50.036 32.9704L49.3618 33.3158L49.9892 34.4909" stroke="#BC9434" stroke-width="1.68595" stroke-linecap="round" stroke-linejoin="round"/>
<path d="M51.6818 32.4063L51.8689 32.3278L52.4964 33.5814" stroke="#BC9434" stroke-width="1.68595" stroke-linejoin="round"/>
<path d="M54.8183 32.3235L48.0743 35.3332C47.8112 35.4505 47.6932 35.7589 47.8106 36.0219L49.6202 40.0769C49.7376 40.3399 50.0459 40.458 50.309 40.3406L57.053 37.3309C57.316 37.2135 57.4341 36.9051 57.3167 36.6421L55.5071 32.5872C55.3897 32.3242 55.0813 32.2061 54.8183 32.3235Z" fill="#BC9434" stroke="#BC9434" stroke-width="0.561983" stroke-linejoin="round"/>
</svg>
